<?xml version="1.0" encoding="UTF-8" standalone="no"?>
<!-- Created with Inkscape (http://www.inkscape.org/) -->

<svg
   width="48mm"
   height="48mm"
   viewBox="0 0 48 48"
   version="1.1"
   id="svg1"
   xml:space="preserve"
   inkscape:version="1.4 (e7c3feb100, 2024-10-09)"
   sodipodi:docname="work_interval_black.svg"
   xmlns:inkscape="http://www.inkscape.org/namespaces/inkscape"
   xmlns:sodipodi="http://sodipodi.sourceforge.net/DTD/sodipodi-0.dtd"
   xmlns="http://www.w3.org/2000/svg"
   xmlns:svg="http://www.w3.org/2000/svg"><sodipodi:namedview
     id="namedview1"
     pagecolor="#505050"
     bordercolor="#eeeeee"
     borderopacity="1"
     inkscape:showpageshadow="0"
     inkscape:pageopacity="0"
     inkscape:pagecheckerboard="0"
     inkscape:deskcolor="#505050"
     inkscape:document-units="mm"
     inkscape:zoom="1.5191748"
     inkscape:cx="57.926185"
     inkscape:cy="36.532992"
     inkscape:window-width="1920"
     inkscape:window-height="1012"
     inkscape:window-x="0"
     inkscape:window-y="0"
     inkscape:window-maximized="1"
     inkscape:current-layer="layer1" /><defs
     id="defs1" /><g
     inkscape:label="Layer 1"
     inkscape:groupmode="layer"
     id="layer1"><path
       id="path1"
       style="stroke-width:1.07895;fill:#000000;fill-opacity:1"
       d="M 24.000085 3.5000448 C 12.67869 3.5000448 3.5000448 12.67869 3.5000448 24.000085 C 3.5000448 35.32148 12.67869 44.500126 24.000085 44.500126 C 25.784453 44.500126 27.515299 44.271266 29.165662 43.842802 A 10.5 10.5 0 0 1 27.775566 41.397473 C 26.558286 41.660414 25.296057 41.802616 24.000085 41.802616 C 14.167638 41.802616 6.1975545 33.832532 6.1975545 24.000085 C 6.1975545 14.167638 14.167638 6.1975545 24.000085 6.1975545 C 33.832532 6.1975545 41.802616 14.167638 41.802616 24.000085 C 41.802616 25.288478 41.662597 26.543678 41.402641 27.754378 A 10.5 10.5 0 0 1 43.850037 29.14034 C 44.274228 27.497671 44.500126 25.775238 44.500126 24.000085 C 44.500126 12.67869 35.32148 3.5000448 24.000085 3.5000448 z M 22.651331 11.052555 C 21.906859 11.052555 21.302584 11.656839 21.302576 12.40131 L 21.302576 25.34884 L 21.309294 25.486816 A 1.3486842 1.3486842 0 0 0 22.651331 26.697595 L 31.282845 26.697595 L 31.420821 26.690877 A 1.3486842 1.3486842 0 0 0 31.282845 24.000085 L 24.000085 24.000085 L 24.000085 12.40131 L 23.993368 12.263334 C 23.924317 11.583599 23.349413 11.052555 22.651331 11.052555 z " /><path
       fill="#000000"
       d="M 27,37.499999 C 27,31.70085 31.70085,27 37.499999,27 43.29915,27 48,31.70085 48,37.499999 48,43.29915 43.29915,48 37.499999,48 31.70085,48 27,43.29915 27,37.499999 m 16.275,-4.068748 a 0.65625009,0.65625009 0 1 0 -1.312499,0 v 1.301998 a 5.2447502,5.2447502 0 0 0 -4.462502,-2.48325 5.2447502,5.2447502 0 0 0 -4.199999,2.09895 0.65656521,0.65656521 0 0 0 1.049999,0.78855 3.939075,3.939075 0 0 1 6.863851,1.050001 h -2.007601 a 0.65625003,0.65625003 0 1 0 0,1.312499 h 3.412501 c 0.362249,0 0.65625,-0.293999 0.65625,-0.65625 z m -10.89375,8.793748 c 0.362249,0 0.656249,-0.293998 0.656249,-0.65625 v -1.301998 a 5.2447502,5.2447502 0 0 0 4.4625,2.48325 A 5.2447502,5.2447502 0 0 0 41.7,40.651051 0.65656613,0.65656613 0 0 0 40.649999,39.862499 3.939075,3.939075 0 0 1 33.78615,38.8125 h 2.007601 a 0.65625068,0.65625068 0 1 0 0,-1.312501 H 32.38125 c -0.362251,0 -0.65625,0.294001 -0.65625,0.656252 v 3.412498 c 0,0.362252 0.293999,0.65625 0.65625,0.65625"
       id="path1-6"
       style="fill:#000000;fill-opacity:1;stroke-width:0.524999" /></g></svg>
