<?xml version="1.0" encoding="UTF-8" standalone="no"?>
<svg
   width="48"
   height="48"
   viewBox="0 0 48 48"
   version="1.1"
   id="svg1"
   sodipodi:docname="click_black.svg"
   inkscape:version="1.4.2 (ebf0e940d0, 2025-05-08)"
   xmlns:inkscape="http://www.inkscape.org/namespaces/inkscape"
   xmlns:sodipodi="http://sodipodi.sourceforge.net/DTD/sodipodi-0.dtd"
   xmlns="http://www.w3.org/2000/svg"
   xmlns:svg="http://www.w3.org/2000/svg">
  <defs
     id="defs1" />
  <sodipodi:namedview
     id="namedview1"
     pagecolor="#ffffff"
     bordercolor="#000000"
     borderopacity="0.25"
     inkscape:showpageshadow="2"
     inkscape:pageopacity="0.0"
     inkscape:pagecheckerboard="true"
     inkscape:deskcolor="#d1d1d1"
     inkscape:zoom="9.9875"
     inkscape:cx="5.5068836"
     inkscape:cy="20.77597"
     inkscape:window-width="1920"
     inkscape:window-height="1008"
     inkscape:window-x="0"
     inkscape:window-y="0"
     inkscape:window-maximized="1"
     inkscape:current-layer="svg1" />
  <path
     fill="#fefffe"
     d="M 19.367869,-7.1620732e-8 A 1.4841788,1.4841788 0 0 1 20.852048,1.4841787 v 5.9367154 a 1.484179,1.484179 0 0 1 -2.968358,0 V 1.4841787 A 1.4841788,1.4841788 0 0 1 19.367869,-7.1620732e-8 M 7.8209582,4.7790558 a 1.4841788,1.4841788 0 0 1 2.1015972,0 L 14.119813,8.9792819 A 1.4841788,1.4841788 0 1 1 12.021184,11.077911 L 7.8239265,6.880653 a 1.4841788,1.4841788 0 0 1 0,-2.0986289 m 23.0938225,0 a 1.4841788,1.4841788 0 0 1 0,2.1015973 L 26.711586,11.077911 A 1.4841788,1.4841788 0 1 1 24.612957,8.9792819 l 4.197258,-4.1972578 a 1.4841788,1.4841788 0 0 1 2.098629,0 M 3.0419023,16.325967 a 1.4841788,1.4841788 0 0 1 1.4841788,-1.484179 h 5.9367159 a 1.484179,1.484179 0 0 1 0,2.968358 H 4.5260811 A 1.4841788,1.4841788 0 0 1 3.0419023,16.325967 M 22.751797,15.732296 a 2.9683577,2.9683577 0 0 0 -4.868107,2.27673 v 27.015023 c 0,2.742763 3.39877,4.019157 5.203531,1.956148 l 6.013893,-6.874716 A 4.4525365,4.4525365 0 0 1 32.45239,38.58865 h 9.531396 c 2.775415,0 4.033999,-3.472979 1.899749,-5.248056 z m -1.899749,29.29769 V 18.009026 L 41.983786,35.620292 H 32.45239 a 7.4208942,7.4208942 0 0 0 -5.586449,2.534978 z"
     id="path1"
     style="stroke-width:2.96836;fill:#000000" />
</svg>
