<?xml version="1.0" encoding="UTF-8" standalone="no"?>
<svg
   width="48"
   height="48"
   viewBox="0 0 48 48"
   version="1.1"
   id="svg1"
   sodipodi:docname="play_pause_black.svg"
   inkscape:version="1.4 (e7c3feb100, 2024-10-09)"
   xmlns:inkscape="http://www.inkscape.org/namespaces/inkscape"
   xmlns:sodipodi="http://sodipodi.sourceforge.net/DTD/sodipodi-0.dtd"
   xmlns="http://www.w3.org/2000/svg"
   xmlns:svg="http://www.w3.org/2000/svg">
  <defs
     id="defs1" />
  <sodipodi:namedview
     id="namedview1"
     pagecolor="#505050"
     bordercolor="#ffffff"
     borderopacity="1"
     inkscape:showpageshadow="0"
     inkscape:pageopacity="0"
     inkscape:pagecheckerboard="1"
     inkscape:deskcolor="#505050"
     inkscape:zoom="10.459288"
     inkscape:cx="25.670964"
     inkscape:cy="26.340226"
     inkscape:window-width="1920"
     inkscape:window-height="1012"
     inkscape:window-x="0"
     inkscape:window-y="0"
     inkscape:window-maximized="1"
     inkscape:current-layer="svg1" />
  <path
     fill="#fff"
     d="M 23,15.5 C 23,13.568 24.568,12 26.5,12 h 3 c 1.932,0 3.5,1.568 3.5,3.5 v 17 A 3.5,3.5 0 0 1 29.5,36 h -3 A 3.5,3.5 0 0 1 23,32.5 v -8.26 a 3.46,3.46 0 0 1 -1.68,2.834 l -13,7.904 C 5.986,36.394 3,34.716 3,31.986 V 16.008 c 0,-2.744 3.014,-4.42 5.346,-2.972 L 21.35,21.11 c 1.052,0.654 1.6,1.724 1.65,2.816 z M 26.5,15 A 0.5,0.5 0 0 0 26,15.5 v 17 c 0,0.276 0.224,0.5 0.5,0.5 h 3 A 0.5,0.5 0 0 0 30,32.5 v -17 A 0.5,0.5 0 0 0 29.5,15 Z M 35,15.5 C 35,13.568 36.568,12 38.5,12 h 3 c 1.932,0 3.5,1.568 3.5,3.5 v 17 A 3.5,3.5 0 0 1 41.5,36 h -3 A 3.5,3.5 0 0 1 35,32.5 Z M 38.5,15 A 0.5,0.5 0 0 0 38,15.5 v 17 c 0,0.276 0.224,0.5 0.5,0.5 h 3 A 0.5,0.5 0 0 0 42,32.5 v -17 A 0.5,0.5 0 0 0 41.5,15 Z M 6,16.008 v 15.98 a 0.5,0.5 0 0 0 0.76,0.426 L 19.764,24.51 a 0.5,0.5 0 0 0 0.004,-0.852 L 6.764,15.584 A 0.5,0.5 0 0 0 6,16.008"
     id="path1"
     style="fill:#000000;fill-opacity:1;stroke-width:2" />
</svg>
