<?xml version="1.0" encoding="UTF-8" standalone="no"?>
<svg
   width="48"
   height="48"
   viewBox="0 0 48 48"
   fill="none"
   version="1.1"
   id="svg1"
   sodipodi:docname="tasks_white.svg"
   inkscape:version="1.4 (e7c3feb100, 2024-10-09)"
   xmlns:inkscape="http://www.inkscape.org/namespaces/inkscape"
   xmlns:sodipodi="http://sodipodi.sourceforge.net/DTD/sodipodi-0.dtd"
   xmlns="http://www.w3.org/2000/svg"
   xmlns:svg="http://www.w3.org/2000/svg">
  <defs
     id="defs1" />
  <sodipodi:namedview
     id="namedview1"
     pagecolor="#505050"
     bordercolor="#eeeeee"
     borderopacity="1"
     inkscape:showpageshadow="0"
     inkscape:pageopacity="0"
     inkscape:pagecheckerboard="0"
     inkscape:deskcolor="#505050"
     inkscape:zoom="8.59375"
     inkscape:cx="6.4"
     inkscape:cy="12.509091"
     inkscape:window-width="1920"
     inkscape:window-height="1012"
     inkscape:window-x="0"
     inkscape:window-y="0"
     inkscape:window-maximized="1"
     inkscape:current-layer="svg1" />
  <path
     fill="#000000"
     d="M 14.6244,6.6000001 H 9.9 a 2.1,2.1 0 0 0 -2.1,2.1 V 42.9 c 0,1.1604 0.9408,2.1 2.1,2.1 h 28.2 a 2.1,2.1 0 0 0 2.1,-2.1 V 8.7000001 a 2.1,2.1 0 0 0 -2.1,-2.1 H 33.3756 A 5.1,5.1 0 0 1 28.5,10.2 h -9 A 5.1,5.1 0 0 1 14.6244,6.6000001 m 18.7512,-3 H 38.1 a 5.1,5.1 0 0 1 5.1,5.1 V 42.9 A 5.1,5.1 0 0 1 38.1,48 H 9.9 A 5.1,5.1 0 0 1 4.8,42.9 V 8.7000001 a 5.1,5.1 0 0 1 5.1,-5.1 h 4.7244 A 5.1,5.1 0 0 1 19.5,6.7898526e-8 h 9 A 5.1,5.1 0 0 1 33.3756,3.6000001 m -15.9756,1.5 c 0,1.1592 0.9408,2.1 2.1,2.1 h 9 a 2.1,2.1 0 1 0 0,-4.2 h -9 a 2.1,2.1 0 0 0 -2.1,2.1"
     id="path1-7"
     style="stroke-width:1.2;fill:#feffff;fill-opacity:1" />
</svg>
