<?xml version="1.0" encoding="UTF-8" standalone="no"?>
<svg
   width="48"
   height="48"
   viewBox="0 0 48 48"
   version="1.1"
   id="svg1"
   sodipodi:docname="text_add_black.svg"
   inkscape:version="1.4.2 (ebf0e940d0, 2025-05-08)"
   xmlns:inkscape="http://www.inkscape.org/namespaces/inkscape"
   xmlns:sodipodi="http://sodipodi.sourceforge.net/DTD/sodipodi-0.dtd"
   xmlns="http://www.w3.org/2000/svg"
   xmlns:svg="http://www.w3.org/2000/svg">
  <defs
     id="defs1" />
  <sodipodi:namedview
     id="namedview1"
     pagecolor="#ffffff"
     bordercolor="#000000"
     borderopacity="0.25"
     inkscape:showpageshadow="2"
     inkscape:pageopacity="0.0"
     inkscape:pagecheckerboard="true"
     inkscape:deskcolor="#d1d1d1"
     inkscape:zoom="9.9875"
     inkscape:cx="42.152691"
     inkscape:cy="22.377972"
     inkscape:window-width="1920"
     inkscape:window-height="1008"
     inkscape:window-x="0"
     inkscape:window-y="0"
     inkscape:window-maximized="1"
     inkscape:current-layer="svg1" />
  <path
     fill="#fefffe"
     d="M 0,1.5 A 1.5,1.5 0 0 1 1.5,0 h 30 A 1.5,1.5 0 0 1 33,1.5 v 6 a 1.5,1.5 0 0 1 -3,0 V 3 H 18 v 36 h 0.621 q 0.447,1.572 1.179,3 h -9.3 a 1.5,1.5 0 0 1 0,-3 H 15 V 3 H 3 v 4.5 a 1.5,1.5 0 0 1 -3,0 z m 48,33 a 13.5,13.5 0 1 1 -27,0 13.5,13.5 0 0 1 27,0 m -12,-6 a 1.5,1.5 0 0 0 -3,0 V 33 h -4.5 a 1.5,1.5 0 0 0 0,3 H 33 v 4.5 a 1.5,1.5 0 0 0 3,0 V 36 h 4.5 a 1.5,1.5 0 0 0 0,-3 H 36 Z"
     id="path1"
     style="stroke-width:3;fill:#000000" />
</svg>
