<?xml version="1.0" encoding="UTF-8" standalone="no"?>
<svg
   width="48"
   height="48"
   fill="none"
   viewBox="0 0 48 48"
   version="1.1"
   id="svg1"
   sodipodi:docname="workspace_white.svg"
   inkscape:version="1.4 (e7c3feb100, 2024-10-09)"
   xmlns:inkscape="http://www.inkscape.org/namespaces/inkscape"
   xmlns:sodipodi="http://sodipodi.sourceforge.net/DTD/sodipodi-0.dtd"
   xmlns="http://www.w3.org/2000/svg"
   xmlns:svg="http://www.w3.org/2000/svg">
  <defs
     id="defs1" />
  <sodipodi:namedview
     id="namedview1"
     pagecolor="#505050"
     bordercolor="#eeeeee"
     borderopacity="1"
     inkscape:showpageshadow="0"
     inkscape:pageopacity="0"
     inkscape:pagecheckerboard="0"
     inkscape:deskcolor="#505050"
     inkscape:zoom="4.5575242"
     inkscape:cx="-26.549503"
     inkscape:cy="29.950472"
     inkscape:window-width="1920"
     inkscape:window-height="1012"
     inkscape:window-x="0"
     inkscape:window-y="0"
     inkscape:window-maximized="1"
     inkscape:current-layer="svg1" />
  <path
     fill="#000000"
     d="M 3,10.5 V 15 h 12.258 c 0.3972,0 0.7788,-0.1584 1.0596,-0.4392 L 20.3784,10.5 16.3176,6.4392 A 1.5,1.5 0 0 0 15.258,6 H 7.5 A 4.5,4.5 0 0 0 3,10.5 m -3,0 A 7.5,7.5 0 0 1 7.5,3 h 7.758 a 4.5,4.5 0 0 1 3.1812,1.3176 L 23.1216,9 H 40.5 a 7.5,7.5 0 0 1 7.5,7.5 v 21 A 7.5,7.5 0 0 1 40.5,45 H 7.5 A 7.5,7.5 0 0 1 0,37.5 Z M 3,18 V 37.5 A 4.5,4.5 0 0 0 7.5,42 h 33 A 4.5,4.5 0 0 0 45,37.5 v -21 A 4.5,4.5 0 0 0 40.5,12 H 23.1216 l -4.6824,4.6824 A 4.5,4.5 0 0 1 15.258,18 Z"
     id="path1"
     style="stroke-width:1.2;fill:#feffff;fill-opacity:1" />
</svg>
