<?xml version="1.0" encoding="UTF-8" standalone="no"?>
<svg
   width="48"
   height="48"
   viewBox="0 0 48 48"
   fill="none"
   version="1.1"
   id="svg1"
   sodipodi:docname="internet_white.svg"
   inkscape:version="1.4 (e7c3feb100, 2024-10-09)"
   xmlns:inkscape="http://www.inkscape.org/namespaces/inkscape"
   xmlns:sodipodi="http://sodipodi.sourceforge.net/DTD/sodipodi-0.dtd"
   xmlns="http://www.w3.org/2000/svg"
   xmlns:svg="http://www.w3.org/2000/svg">
  <defs
     id="defs1" />
  <sodipodi:namedview
     id="namedview1"
     pagecolor="#505050"
     bordercolor="#eeeeee"
     borderopacity="1"
     inkscape:showpageshadow="0"
     inkscape:pageopacity="0"
     inkscape:pagecheckerboard="0"
     inkscape:deskcolor="#505050"
     inkscape:zoom="12.153398"
     inkscape:cx="12.50679"
     inkscape:cy="25.383848"
     inkscape:window-width="1920"
     inkscape:window-height="1012"
     inkscape:window-x="0"
     inkscape:window-y="0"
     inkscape:window-maximized="1"
     inkscape:current-layer="svg1" />
  <path
     d="m 22.961901,0.41701318 c 0.580199,-0.55601966 1.495438,-0.55601966 2.075638,0 3.310438,3.17249812 8.021756,4.89347692 12.044753,5.80778042 1.990799,0.4524597 3.766797,0.6971515 5.042997,0.8283835 0.637199,0.065532 1.147439,0.1025399 1.494839,0.1230719 0.173639,0.01026 0.30636,0.016392 0.393719,0.019908 0.04368,0.00176 0.07596,0.00287 0.09636,0.00352 l 0.02148,6.84e-4 h 0.0032 c 0.81432,0.01932 1.465079,0.6849595 1.465079,1.4996391 V 20.39999 c 0,11.396152 -6.071276,22.818705 -21.152867,27.531702 -0.291359,0.09108 -0.60348,0.09108 -0.894839,0 C 16.066345,45.592294 10.751068,41.580936 7.3172705,36.629859 3.8912607,31.689822 2.4000336,25.904386 2.4000336,20.099989 V 8.7001161 c -1.2e-5,-0.8145595 0.6500275,-1.4803192 1.4642391,-1.4996391 2.4e-5,0 -2.4e-5,0 0,0 l 0.00408,-1.2e-4 0.021528,-6.84e-4 c 0.020364,-6.48e-4 0.052668,-0.00175 0.096324,-0.00352 C 4.0735407,7.192633 4.2062606,7.186503 4.3798765,7.176245 4.7272162,7.155717 5.2374678,7.118709 5.8746675,7.0531771 7.1508186,6.9219451 8.9267095,6.6772533 10.917508,6.2248056 14.940265,5.3104901 19.651462,3.5895232 22.961901,0.41701318 Z M 5.4000557,10.110355 l -2.4e-5,9.989634 c 0,0 0,0 0,0 1.2e-5,5.295477 1.3586392,10.460153 4.3823973,14.820111 2.950558,4.254357 7.545835,7.829155 14.21735,10.005234 C 37.386731,40.558536 42.600008,30.492223 42.600008,20.39999 V 10.110355 c -0.23628,-0.01967 -0.497759,-0.04368 -0.781559,-0.07296 C 40.45081,9.8967553 38.551691,9.6352755 36.417492,9.1502358 32.555174,8.2724363 27.764778,6.6279933 23.999779,3.5074192 20.234782,6.6279933 15.444505,8.2724363 11.582307,9.1502358 9.4481092,9.6352755 7.5491103,9.8967553 6.1815672,10.037396 c -0.2838718,0.02928 -0.5452556,0.05328 -0.7815115,0.07296 z"
     fill="#212121"
     id="path1"
     style="fill:#feffff;stroke-width:1.2;fill-opacity:1" />
</svg>
