<?xml version="1.0" encoding="UTF-8" standalone="no"?>
<svg
   fill="none"
   viewBox="1.75 1.92 47.999999 47.999998"
   version="1.1"
   id="svg1"
   sodipodi:docname="long_break_black.svg"
   width="48"
   height="48"
   inkscape:version="1.4 (e7c3feb100, 2024-10-09)"
   xmlns:inkscape="http://www.inkscape.org/namespaces/inkscape"
   xmlns:sodipodi="http://sodipodi.sourceforge.net/DTD/sodipodi-0.dtd"
   xmlns="http://www.w3.org/2000/svg"
   xmlns:svg="http://www.w3.org/2000/svg">
  <defs
     id="defs1" />
  <sodipodi:namedview
     id="namedview1"
     pagecolor="#505050"
     bordercolor="#eeeeee"
     borderopacity="1"
     inkscape:showpageshadow="0"
     inkscape:pageopacity="0"
     inkscape:pagecheckerboard="0"
     inkscape:deskcolor="#505050"
     inkscape:zoom="5.0787272"
     inkscape:cx="14.964379"
     inkscape:cy="27.270612"
     inkscape:window-width="1920"
     inkscape:window-height="1012"
     inkscape:window-x="0"
     inkscape:window-y="0"
     inkscape:window-maximized="1"
     inkscape:current-layer="svg1" />
  <path
     fill="#000000"
     d="m 46.923653,27.727838 0.434064,-0.76319 C 51.969059,18.979764 49.233497,8.769703 41.248613,4.1595526 33.26373,-0.45059685 23.052475,2.2849652 18.442326,10.269849 l -0.150254,0.259962 a 1.8006534,1.8006534 0 0 0 0.623671,2.44698 l 11.593345,7.004661 -6.422728,10.634587 c -5.616607,0.494881 -10.416362,3.476096 -12.998094,7.693917 q 0.214648,-0.02028 0.434065,-0.0155 a 3.8755784,3.8755784 0 0 1 2.50422,0.986186 c 2.351582,-3.381889 6.59683,-5.757321 11.719749,-5.757321 5.122918,0 9.370553,2.376623 11.722134,5.759705 a 3.8755784,3.8755784 0 0 1 2.935899,-0.97426 C 37.846452,34.130293 33.111091,31.165775 27.56007,30.629156 l 5.499744,-9.10582 11.365581,6.866332 A 1.8006534,1.8006534 0 0 0 46.92246,27.729031 M 42.054733,8.403609 c 4.662619,4.171314 5.985086,11.131854 2.871507,16.806892 l -5.812176,-3.511869 0.02028,-0.03339 c 0.143099,-0.226573 0.336281,-0.549736 0.558083,-0.962336 0.443604,-0.824007 1.00288,-2.008146 1.48226,-3.470133 0.76319,-2.324154 1.333199,-5.386458 0.880054,-8.829164 M 36.979519,5.5213715 C 34.416867,6.673313 32.204808,8.580097 30.563946,10.279389 a 34.582083,34.582083 0 0 0 -3.414086,4.14985 l -0.02028,0.02743 -5.658344,-3.418856 c 3.404549,-5.1443824 9.78077,-7.3063589 15.508279,-5.516438 m -7.29205,10.480756 a 31.481621,31.481621 0 0 1 3.019373,-3.651391 c 1.762495,-1.824503 3.945936,-3.589381 6.254588,-4.416967 0.60936,3.239984 0.107321,6.156804 -0.6189,8.368865 a 18.602776,18.602776 0 0 1 -1.275959,2.985984 14.309828,14.309828 0 0 1 -0.504422,0.866937 z m 11.20221,24.931297 a 1.490607,1.490607 0 0 0 -0.80612,-0.254 h -0.05843 a 1.490607,1.490607 0 0 0 -1.383283,1.018383 l -0.0012,0.0036 c -0.05128,0.13952 -1.545461,4.343032 -5.739433,4.343032 -4.197549,0 -5.682194,-4.1737 -5.740625,-4.347803 a 1.490607,1.490607 0 0 0 -2.828577,0 l -0.0012,0.0036 c -0.05128,0.140714 -1.545461,4.344226 -5.739434,4.344226 -4.197549,0 -5.682194,-4.173701 -5.735855,-4.347804 A 1.4786822,1.4786822 0 0 0 12.326067,40.96801 1.490607,1.490607 0 0 0 11.473439,40.678236 h -0.02624 a 1.490607,1.490607 0 0 0 -1.398785,0.959951 c -0.02028,0.05367 -2.0725409,5.300599 -6.6564553,5.300599 a 1.4906071,1.4906071 0 0 0 0,2.981214 9.7783823,9.7783823 0 0 0 8.0445083,-4.650694 8.7051452,8.7051452 0 0 0 14.309828,0.0071 8.7051452,8.7051452 0 0 0 14.309827,-0.0071 9.7783823,9.7783823 0 0 0 8.049279,4.650694 1.4906071,1.4906071 0 1 0 0,-2.981214 c -2.957364,0 -4.874881,-2.221602 -5.859875,-3.788528 v -0.0023 A 10.136128,10.136128 0 0 1 41.450142,41.63823 1.490607,1.490607 0 0 0 40.889674,40.932279"
     id="path1"
     style="stroke-width:1.19248" />
</svg>
